<svg width="40" height="36" viewBox="0 0 40 36" fill="none" xmlns="http://www.w3.org/2000/svg">
<path d="M5.4248 0.5H29.1504C34.6986 0.5 39.2266 4.86593 39.4873 10.3496H5.4248C2.70504 10.3496 0.50008 8.14455 0.5 5.4248C0.5 2.70499 2.70499 0.5 5.4248 0.5Z" fill="#3F51B5" stroke="#3F51B5"/>
<path d="M34.5752 35.5H10.8496C5.30138 35.5 0.77341 31.1341 0.512695 25.6504H34.5752C37.295 25.6504 39.4999 27.8555 39.5 30.5752C39.5 33.295 37.295 35.5 34.5752 35.5Z" fill="#3F51B5" stroke="#3F51B5"/>
<path d="M10.8496 23.1713C5.30138 23.1713 0.77341 18.8053 0.512695 13.3217H29.1504C34.6985 13.3217 39.2264 17.6877 39.4873 23.1713H10.8496Z" fill="#3F51B5" stroke="#3F51B5"/>
</svg>
