<svg width="194" height="31" viewBox="0 0 194 31" fill="none" xmlns="http://www.w3.org/2000/svg">
<path d="M39.72 18.08H43.94C44.0067 18.4933 44.2 18.8533 44.52 19.16C44.84 19.4667 45.2667 19.7067 45.8 19.88C46.3467 20.04 46.9867 20.12 47.72 20.12C48.7333 20.12 49.5333 19.9933 50.12 19.74C50.7067 19.4733 51 19.0867 51 18.58C51 18.1933 50.8333 17.8933 50.5 17.68C50.1667 17.4667 49.5267 17.3133 48.58 17.22L45.78 16.96C43.7133 16.7733 42.2133 16.3067 41.28 15.56C40.3467 14.8 39.88 13.78 39.88 12.5C39.88 11.46 40.18 10.58 40.78 9.86C41.3933 9.14 42.2467 8.6 43.34 8.24C44.4467 7.86667 45.7333 7.68 47.2 7.68C48.64 7.68 49.92 7.88667 51.04 8.3C52.16 8.7 53.0467 9.27333 53.7 10.02C54.3667 10.7667 54.7267 11.6333 54.78 12.62H50.58C50.5267 12.26 50.3533 11.9533 50.06 11.7C49.78 11.4333 49.3933 11.2333 48.9 11.1C48.4067 10.9533 47.8133 10.88 47.12 10.88C46.1867 10.88 45.4467 11.0067 44.9 11.26C44.3533 11.5 44.08 11.86 44.08 12.34C44.08 12.6867 44.24 12.9667 44.56 13.18C44.8933 13.3933 45.4867 13.54 46.34 13.62L49.32 13.92C50.7467 14.0533 51.8867 14.2867 52.74 14.62C53.5933 14.94 54.2133 15.3867 54.6 15.96C54.9867 16.5333 55.18 17.2467 55.18 18.1C55.18 19.1533 54.8667 20.0733 54.24 20.86C53.6133 21.6333 52.7333 22.24 51.6 22.68C50.4667 23.1067 49.1467 23.32 47.64 23.32C46.0933 23.32 44.7267 23.1067 43.54 22.68C42.3667 22.24 41.4467 21.6267 40.78 20.84C40.1133 20.04 39.76 19.12 39.72 18.08ZM56.8973 7.6H60.9973V23H56.8973V7.6ZM65.1773 11.24C66.284 11.24 67.2173 11.46 67.9773 11.9C68.7507 12.34 69.344 12.96 69.7573 13.76C70.1707 14.56 70.3773 15.5067 70.3773 16.6V23H66.2773V17.2C66.2773 16.3467 66.0573 15.6933 65.6173 15.24C65.1907 14.7867 64.5707 14.56 63.7573 14.56C63.1973 14.56 62.704 14.68 62.2773 14.92C61.864 15.16 61.544 15.5 61.3173 15.94C61.104 16.38 60.9973 16.9 60.9973 17.5L59.7173 16.84C59.8773 15.6267 60.2173 14.6067 60.7373 13.78C61.2573 12.94 61.8973 12.3067 62.6573 11.88C63.4307 11.4533 64.2707 11.24 65.1773 11.24ZM79.2833 23.32C77.8166 23.32 76.5366 23.0733 75.4433 22.58C74.3499 22.0733 73.4966 21.3667 72.8833 20.46C72.2699 19.54 71.9633 18.4867 71.9633 17.3C71.9633 16.0867 72.2699 15.0267 72.8833 14.12C73.4966 13.2133 74.3499 12.5067 75.4433 12C76.5366 11.4933 77.8166 11.24 79.2833 11.24C80.7366 11.24 82.0099 11.4933 83.1033 12C84.2099 12.5067 85.0699 13.2133 85.6833 14.12C86.2966 15.0267 86.6033 16.0867 86.6033 17.3C86.6033 18.4867 86.2966 19.54 85.6833 20.46C85.0699 21.3667 84.2099 22.0733 83.1033 22.58C82.0099 23.0733 80.7366 23.32 79.2833 23.32ZM79.2833 20.3C79.9499 20.3 80.5166 20.18 80.9833 19.94C81.4633 19.7 81.8299 19.3533 82.0833 18.9C82.3366 18.4467 82.4633 17.9133 82.4633 17.3C82.4633 16.66 82.3366 16.12 82.0833 15.68C81.8299 15.2267 81.4633 14.88 80.9833 14.64C80.5166 14.4 79.9499 14.28 79.2833 14.28C78.6166 14.28 78.0433 14.4 77.5633 14.64C77.0833 14.88 76.7166 15.2267 76.4633 15.68C76.2099 16.12 76.0833 16.6533 76.0833 17.28C76.0833 17.9067 76.2099 18.4467 76.4633 18.9C76.7166 19.3533 77.0833 19.7 77.5633 19.94C78.0433 20.18 78.6166 20.3 79.2833 20.3ZM87.705 11.58H91.865L92.545 15.66V23H88.465V15.42L87.705 11.58ZM97.905 11.4V14.88C97.505 14.8 97.125 14.7467 96.765 14.72C96.4183 14.68 96.0983 14.66 95.805 14.66C95.2183 14.66 94.6783 14.78 94.185 15.02C93.6917 15.2467 93.2917 15.6267 92.985 16.16C92.6917 16.6933 92.545 17.4067 92.545 18.3L91.765 17.34C91.8717 16.5133 92.0317 15.74 92.245 15.02C92.4583 14.2867 92.745 13.64 93.105 13.08C93.4783 12.5067 93.9383 12.06 94.485 11.74C95.0317 11.4067 95.6983 11.24 96.485 11.24C96.7117 11.24 96.945 11.2533 97.185 11.28C97.425 11.3067 97.665 11.3467 97.905 11.4ZM98.3973 14.6V12.82L100.717 11.88L102.477 8.5H104.797V11.58H109.597V14.6H104.797V17.96C104.797 18.7867 104.964 19.3667 105.297 19.7C105.631 20.0333 106.237 20.2 107.117 20.2C107.677 20.2 108.171 20.1533 108.597 20.06C109.037 19.9533 109.437 19.82 109.797 19.66V22.74C109.397 22.8867 108.871 23.02 108.217 23.14C107.564 23.26 106.891 23.32 106.197 23.32C104.931 23.32 103.891 23.1267 103.077 22.74C102.277 22.3533 101.684 21.8 101.297 21.08C100.911 20.3467 100.717 19.4933 100.717 18.52V14.6H98.3973ZM133.648 8V23H129.708V9.48L130.588 9.58L124.788 23H120.588L114.768 9.62L115.668 9.52V23H111.728V8H118.128L123.508 20.88H121.908L127.248 8H133.648ZM142.679 23.32C141.293 23.32 140.053 23.0667 138.959 22.56C137.879 22.0533 137.026 21.3467 136.399 20.44C135.773 19.52 135.459 18.4533 135.459 17.24C135.459 16.0533 135.759 15.0133 136.359 14.12C136.959 13.2133 137.779 12.5067 138.819 12C139.873 11.4933 141.059 11.24 142.379 11.24C143.753 11.24 144.919 11.54 145.879 12.14C146.853 12.7267 147.599 13.56 148.119 14.64C148.653 15.72 148.919 16.9933 148.919 18.46H138.759V16H146.619L145.279 16.86C145.226 16.2733 145.079 15.78 144.839 15.38C144.599 14.9667 144.279 14.6533 143.879 14.44C143.493 14.2267 143.026 14.12 142.479 14.12C141.879 14.12 141.366 14.24 140.939 14.48C140.513 14.72 140.179 15.0533 139.939 15.48C139.699 15.8933 139.579 16.38 139.579 16.94C139.579 17.66 139.739 18.2733 140.059 18.78C140.393 19.2733 140.873 19.6533 141.499 19.92C142.139 20.1867 142.919 20.32 143.839 20.32C144.679 20.32 145.513 20.2133 146.339 20C147.179 19.7733 147.939 19.46 148.619 19.06V21.66C147.833 22.1933 146.933 22.6067 145.919 22.9C144.919 23.18 143.839 23.32 142.679 23.32ZM163.907 19.28C163.907 20.16 163.64 20.9 163.107 21.5C162.574 22.1 161.814 22.5533 160.827 22.86C159.84 23.1667 158.654 23.32 157.267 23.32C155.84 23.32 154.587 23.1467 153.507 22.8C152.44 22.4533 151.607 21.9667 151.007 21.34C150.407 20.7133 150.087 19.9867 150.047 19.16H154.187C154.28 19.4667 154.46 19.7333 154.727 19.96C155.007 20.1733 155.374 20.34 155.827 20.46C156.28 20.5667 156.82 20.62 157.447 20.62C158.26 20.62 158.874 20.54 159.287 20.38C159.714 20.22 159.927 19.98 159.927 19.66C159.927 19.4067 159.767 19.22 159.447 19.1C159.127 18.9667 158.58 18.8667 157.807 18.8L155.787 18.64C154.44 18.5467 153.367 18.3467 152.567 18.04C151.78 17.72 151.214 17.3133 150.867 16.82C150.52 16.3133 150.347 15.74 150.347 15.1C150.347 14.2333 150.614 13.52 151.147 12.96C151.694 12.3867 152.447 11.96 153.407 11.68C154.38 11.3867 155.514 11.24 156.807 11.24C158.087 11.24 159.227 11.4067 160.227 11.74C161.227 12.0733 162.027 12.54 162.627 13.14C163.227 13.7267 163.574 14.42 163.667 15.22H159.527C159.46 14.9667 159.314 14.74 159.087 14.54C158.86 14.3267 158.547 14.1533 158.147 14.02C157.747 13.8867 157.234 13.82 156.607 13.82C155.874 13.82 155.314 13.9 154.927 14.06C154.554 14.22 154.367 14.4467 154.367 14.74C154.367 14.9667 154.48 15.1467 154.707 15.28C154.947 15.4133 155.387 15.5067 156.027 15.56L158.687 15.76C160.007 15.84 161.047 16.0333 161.807 16.34C162.567 16.6333 163.107 17.0267 163.427 17.52C163.747 18.0133 163.907 18.6 163.907 19.28ZM165.628 7.6H169.728V23H165.628V7.6ZM173.908 11.24C175.014 11.24 175.948 11.46 176.708 11.9C177.481 12.34 178.074 12.96 178.488 13.76C178.901 14.56 179.108 15.5067 179.108 16.6V23H175.008V17.2C175.008 16.3467 174.788 15.6933 174.348 15.24C173.921 14.7867 173.301 14.56 172.488 14.56C171.928 14.56 171.434 14.68 171.008 14.92C170.594 15.16 170.274 15.5 170.048 15.94C169.834 16.38 169.728 16.9 169.728 17.5L168.448 16.84C168.608 15.6267 168.948 14.6067 169.468 13.78C169.988 12.94 170.628 12.3067 171.388 11.88C172.161 11.4533 173.001 11.24 173.908 11.24Z" fill="#1E1E1E"/>
<path d="M4.21875 0.5H23.5615C27.7778 0.5 31.2244 3.78719 31.4824 7.93848H4.21875C2.1649 7.93825 0.5 6.27265 0.5 4.21875C0.500231 2.16504 2.16504 0.500231 4.21875 0.5Z" fill="#3F51B5" stroke="#3F51B5"/>
<path d="M27.7812 27.5H8.43848C4.22218 27.5 0.775587 24.2128 0.517578 20.0615H27.7812C29.8351 20.0618 31.5 21.7273 31.5 23.7812C31.4998 25.835 29.835 27.4998 27.7812 27.5Z" fill="#3F51B5" stroke="#3F51B5"/>
<path d="M8.43848 17.9109C4.22218 17.9109 0.775587 14.6237 0.517578 10.4724H23.5615C27.7778 10.4724 31.2244 13.7597 31.4824 17.9109H8.43848Z" fill="#3F51B5" stroke="#3F51B5"/>
</svg>
